<svg xmlns="http://www.w3.org/2000/svg" xmlns:xlink="http://www.w3.org/1999/xlink" version="1.1" x="0px" y="0px" width="100px" height="100px" viewBox="0 0 100 100" enable-background="new 0 0 100 100" xml:space="preserve">
<g id="Captions">
</g>
<g id="Your_Icon">
	<path fill="#000000" d="M3.567,28.066c0-12.789,11.044-23.868,23.314-23.351l3.044,4.863l-14.324,7.189L8.339,31.165L3.567,28.066z   "/>
	<path fill="#000000" d="M73.109,4.752c12.789,0,23.868,11.044,23.351,23.315l-4.862,3.044l-7.191-14.322L70.011,9.525L73.109,4.752   z"/>
	<path fill="#000000" d="M73,49H54.097C53.688,48,53,46.585,51,46.127V27h-3v19.14c-1,0.612-2.639,2.214-2.639,4.093   c0,2.407,2.06,4.409,4.467,4.409c1.817,0,3.482-1.642,4.138-2.642H73V49z"/>
	<path fill="#000000" d="M91.828,50.297c0-23.103-18.729-41.833-41.832-41.833c-23.103,0-41.833,18.73-41.833,41.833   c0,10.238,3.68,19.615,9.787,26.887l-3.622,11.319l8.304,2.656l2.346-7.332c6.978,5.215,15.637,8.303,25.019,8.303   c9.396,0,18.07-3.099,25.054-8.33l2.354,7.359l8.304-2.657l-3.634-11.356C88.162,69.88,91.828,60.518,91.828,50.297z    M49.996,83.273c-18.213,0-32.977-14.766-32.977-32.977c0-18.213,14.764-32.976,32.977-32.976   c18.211,0,32.977,14.763,32.977,32.976C82.973,68.508,68.207,83.273,49.996,83.273z"/>
</g>
</svg>